# xmcd
#
# Track frame offsets: 
#        183
#        17350
#        36740
#        52770
#        67173
#        83485
#        104620
#        123828
#        141448
#        160388
#        178045
#        193545
#        216105
#        235380
#
# Disc length: 3284 seconds
#
# Revision: 3
# Processed by: cddbd v1.5.2PL0 Copyright (c) Steve Scherf et al.
# Submitted via: ExactAudioCopy v0.99pb3
#
DISCID=c50cd20e
DTITLE=Kiri Te Kanawa and Malcom McNeill - Heart To Heart
DYEAR=1991
DGENRE=Ballad
TTITLE0=Heart to Heart
TTITLE1=Is It Really Me?
TTITLE2=We're All Alone
TTITLE3=Love Song
TTITLE4=The Long and Winding Road
TTITLE5=Bring All Your Love
TTITLE6=The Best of Me
TTITLE7=Pieces of April
TTITLE8=He Was Beautiful
TTITLE9=The Rose
TTITLE10=With You I'm Born Again
TTITLE11=Have I Told You Lately
TTITLE12=Somewhere Out There
TTITLE13=Heart to Heart
EXTD=
EXTT0=
EXTT1=
EXTT2=
EXTT3=
EXTT4=
EXTT5=
EXTT6=
EXTT7=
EXTT8=
EXTT9=
EXTT10=
EXTT11=
EXTT12=
EXTT13=
PLAYORDER=
